<svg xmlns="http://www.w3.org/2000/svg" xmlns:xlink="http://www.w3.org/1999/xlink" viewBox="0 0 860 440" width="860" height="440">
  <defs>
    <style>
      .page-bg { fill: #ffffff; }
      .layer-bg { fill: #f6f8fa; }
      .box { fill: #ffffff; stroke: #d0d7de; stroke-width: 1; }
      .box-decision { fill: #ffffff; stroke: #d0d7de; stroke-width: 1.5; }
      .title { font-family: -apple-system, BlinkMacSystemFont, 'Segoe UI', Helvetica, Arial, sans-serif; font-size: 15px; font-weight: 700; fill: #1f2328; }
      .subtitle { font-family: -apple-system, BlinkMacSystemFont, 'Segoe UI', Helvetica, Arial, sans-serif; font-size: 11px; fill: #656d76; }
      .item-label { font-family: -apple-system, BlinkMacSystemFont, 'Segoe UI', Helvetica, Arial, sans-serif; font-size: 11px; font-weight: 600; fill: #1f2328; }
      .item-desc { font-family: -apple-system, BlinkMacSystemFont, 'Segoe UI', Helvetica, Arial, sans-serif; font-size: 9px; fill: #656d76; }
      .cond { font-family: -apple-system, BlinkMacSystemFont, 'Segoe UI', Helvetica, Arial, sans-serif; font-size: 10px; font-weight: 600; fill: #57606a; }
      .note { font-family: -apple-system, BlinkMacSystemFont, 'Segoe UI', Helvetica, Arial, sans-serif; font-size: 9px; fill: #8b949e; }
      .arrow { stroke: #b0b8c1; stroke-width: 1.2; fill: none; marker-end: url(#ah-l); }

      @media (prefers-color-scheme: dark) {
        .page-bg { fill: #0d1117; }
        .layer-bg { fill: #161b22; }
        .box { fill: #0d1117; stroke: #30363d; }
        .box-decision { fill: #0d1117; stroke: #30363d; }
        .title { fill: #e6edf3; }
        .subtitle { fill: #8b949e; }
        .item-label { fill: #e6edf3; }
        .item-desc { fill: #8b949e; }
        .cond { fill: #8b949e; }
        .note { fill: #484f58; }
        .arrow { stroke: #484f58; marker-end: url(#ah-d); }
      }
    </style>
    <marker id="ah-l" markerWidth="8" markerHeight="6" refX="8" refY="3" orient="auto">
      <path d="M0,0 L8,3 L0,6" fill="none" stroke="#b0b8c1" stroke-width="1"/>
    </marker>
    <marker id="ah-d" markerWidth="8" markerHeight="6" refX="8" refY="3" orient="auto">
      <path d="M0,0 L8,3 L0,6" fill="none" stroke="#484f58" stroke-width="1"/>
    </marker>
  </defs>

  <rect class="page-bg" width="860" height="440" rx="8"/>

  <text class="title" x="430" y="20" text-anchor="middle">Workflow Decision Flow</text>
  <text class="subtitle" x="430" y="36" text-anchor="middle">Route tasks to the right execution pattern</text>

  <!-- Task arrives -->
  <rect class="box-decision" x="355" y="50" width="150" height="36" rx="5"/>
  <text class="item-label" x="430" y="73" text-anchor="middle">Task arrives</text>

  <!-- Row 1: Multi-repo and Research -->
  <line class="arrow" x1="430" y1="86" x2="430" y2="110"/>

  <!-- Decision: Multi-repo? -->
  <text class="cond" x="200" y="120">Spans multiple repos?</text>
  <line class="arrow" x1="355" y1="115" x2="200" y2="115"/>
  <rect class="box" x="30" y="130" width="170" height="44" rx="5"/>
  <text class="item-label" x="115" y="148" text-anchor="middle">Fork workflow</text>
  <text class="item-desc" x="115" y="162" text-anchor="middle">triage → implement → PR</text>
  <line class="arrow" x1="115" y1="115" x2="115" y2="130"/>

  <!-- Decision: Research? -->
  <text class="cond" x="560" y="120">Research / multi-approach?</text>
  <line class="arrow" x1="505" y1="115" x2="660" y2="115"/>
  <rect class="box" x="660" y="130" width="170" height="44" rx="5"/>
  <text class="item-label" x="745" y="148" text-anchor="middle">CC Plan Mode</text>
  <text class="item-desc" x="745" y="162" text-anchor="middle">explore → plan → handoff</text>
  <line class="arrow" x1="745" y1="115" x2="745" y2="130"/>

  <!-- Row 2: Major feature -->
  <line class="arrow" x1="430" y1="110" x2="430" y2="200"/>
  <text class="cond" x="200" y="210">Major feature (5+ files)?</text>
  <line class="arrow" x1="355" y1="205" x2="200" y2="205"/>

  <rect class="box" x="30" y="220" width="170" height="44" rx="5"/>
  <text class="item-label" x="115" y="238" text-anchor="middle">Ralph loop</text>
  <text class="item-desc" x="115" y="252" text-anchor="middle">PRD → TDD → worktree</text>
  <line class="arrow" x1="115" y1="205" x2="115" y2="220"/>

  <!-- Ralph sub-decisions -->
  <rect class="box" x="30" y="274" width="170" height="36" rx="5"/>
  <text class="item-desc" x="115" y="290" text-anchor="middle">independent → teams (N_WT&gt;1)</text>
  <text class="item-desc" x="115" y="302" text-anchor="middle">sequential → single (N_WT=1)</text>
  <line class="arrow" x1="115" y1="264" x2="115" y2="274"/>

  <!-- Decision: Parallel subtasks? -->
  <text class="cond" x="560" y="210">Parallel subtasks?</text>
  <line class="arrow" x1="505" y1="205" x2="660" y2="205"/>
  <rect class="box" x="660" y="220" width="170" height="44" rx="5"/>
  <text class="item-label" x="745" y="238" text-anchor="middle">CC Agent Teams</text>
  <text class="item-desc" x="745" y="252" text-anchor="middle">lead/teammate hierarchy</text>
  <line class="arrow" x1="745" y1="205" x2="745" y2="220"/>

  <!-- Row 3: Small fix and Docs -->
  <line class="arrow" x1="430" y1="200" x2="430" y2="330"/>
  <text class="cond" x="200" y="340">Small fix (1-3 files)?</text>
  <line class="arrow" x1="355" y1="335" x2="200" y2="335"/>

  <rect class="box" x="30" y="350" width="170" height="44" rx="5"/>
  <text class="item-label" x="115" y="368" text-anchor="middle">CC interactive</text>
  <text class="item-desc" x="115" y="382" text-anchor="middle">skills, no orchestration</text>
  <line class="arrow" x1="115" y1="335" x2="115" y2="350"/>

  <text class="cond" x="560" y="340">Documentation?</text>
  <line class="arrow" x1="505" y1="335" x2="660" y2="335"/>
  <rect class="box" x="660" y="350" width="170" height="44" rx="5"/>
  <text class="item-label" x="745" y="368" text-anchor="middle">docs-governance</text>
  <text class="item-desc" x="745" y="382" text-anchor="middle">hierarchy + maintenance</text>
  <line class="arrow" x1="745" y1="335" x2="745" y2="350"/>

  <!-- Footer -->
  <text class="note" x="430" y="428" text-anchor="middle">Route by scope and complexity — smallest viable pattern wins</text>
</svg>
