<svg xmlns="http://www.w3.org/2000/svg" viewBox="0 0 240 80" role="img" aria-label="qte77 wordmark">
  <style>
    .wm-fg { fill: #e6edf3; }
    .wm-accent { fill: #388bfd; }
    @media (prefers-color-scheme: light) {
      .wm-fg { fill: #1f2328; }
      .wm-accent { fill: #1f6feb; }
    }
  </style>
  <g><path d="M398 -180V-26L402 105H398Q391 58 361 29Q321 -10 253 -10Q170 -10 121.0 47.0Q72 104 72 201V350Q72 446 121.5 503.0Q171 560 253 560Q321 560 361 522Q391 492 398 445H401V550H523V-180ZM297 98Q345 98 371.5 126.5Q398 155 398 206V344Q398 395 371.5 423.5Q345 452 297.0 452.0Q249 452 223.0 424.0Q197 396 197 344V206Q197 154 223.0 126.0Q249 98 297 98Z" transform="translate(20.0000,54.0000) scale(0.044000,-0.044000)" class="wm-fg" /><path d="M360 0Q281 0 236.5 44.0Q192 88 192 165V437H43V550H192V705H318V550H529V437H318V165Q318 113 369 113H519V0Z" transform="translate(46.4000,54.0000) scale(0.044000,-0.044000)" class="wm-fg" /><path d="M301 -10Q231 -10 179.0 17.0Q127 44 98.5 92.5Q70 141 70 206V344Q70 409 98.5 457.5Q127 506 179.0 533.0Q231 560 301 560Q370 560 421.5 533.0Q473 506 501.5 457.5Q530 409 530 344V245H191V206Q191 148 219.0 118.5Q247 89 302 89Q344 89 370.0 103.5Q396 118 403 146H526Q512 75 450.5 32.5Q389 -10 301 -10ZM409 325V345Q409 402 382.0 432.5Q355 463 301.0 463.0Q247 463 219.0 432.0Q191 401 191 344V323Z" transform="translate(72.8000,54.0000) scale(0.044000,-0.044000)" class="wm-fg" /><path d="M155 0 419 614H185V508H60V730H544V612L289 0Z" transform="translate(99.2000,54.0000) scale(0.044000,-0.044000)" class="wm-fg" /><path d="M155 0 419 614H185V508H60V730H544V612L289 0Z" transform="translate(125.6000,54.0000) scale(0.044000,-0.044000)" class="wm-fg" /></g><rect class="wm-accent" x="46" y="62" width="104" height="3" rx="1.5" />
</svg>