<svg xmlns="http://www.w3.org/2000/svg" viewBox="0 0 240 80" role="img" aria-label="qte77 wordmark">
  <style>
    .wm-fg { fill: #e6edf3; }
    .wm-accent { fill: #388bfd; }
    @media (prefers-color-scheme: light) {
      .wm-fg { fill: #1f2328; }
      .wm-accent { fill: #1f6feb; }
    }
  </style>
  <g><path d="M485 -20Q292 -20 185.5 119.5Q79 259 79 520Q79 787 186.0 933.5Q293 1080 487 1080Q608 1080 670.5 1027.5Q733 975 752 868H781L798 1060H1049V-460H778V164H752Q735 73 666.5 26.5Q598 -20 485 -20ZM778 539V544Q778 686 725.0 755.5Q672 825 565 825Q465 825 410.5 745.5Q356 666 356 520Q356 378 409.0 306.5Q462 235 565 235Q672 235 725.0 297.0Q778 359 778 482Z" transform="translate(20.0000,54.0000) scale(0.021484,-0.021484)" class="wm-fg" /><path d="M825 -20Q551 -20 429.0 90.0Q307 200 307 442V811H53V1060H307V1380H577V1060H1047V811H577V468Q577 347 639.5 292.0Q702 237 845 237Q891 237 943.5 242.5Q996 248 1063 257L1087 4Q1021 -8 958.5 -14.0Q896 -20 825 -20Z" transform="translate(45.7812,54.0000) scale(0.021484,-0.021484)" class="wm-fg" /><path d="M684 -20Q409 -20 259.0 122.5Q109 265 109 532Q109 792 236.5 936.0Q364 1080 596 1080Q823 1080 947.0 947.0Q1071 814 1071 560Q1071 488 1065 423H392Q413 357 462 314Q548 236 708 236Q780 236 850.0 243.5Q920 251 993 264L1019 8Q917 -10 833.0 -15.0Q749 -20 684 -20ZM379 611H805Q805 718 750.5 775.0Q696 832 598 832Q492 832 434 757Q390 701 379 611Z" transform="translate(71.5625,54.0000) scale(0.021484,-0.021484)" class="wm-fg" /><path d="M447 0 810 1177H360V872H95V1420H1171L716 0Z" transform="translate(97.3438,54.0000) scale(0.021484,-0.021484)" class="wm-fg" /><path d="M447 0 810 1177H360V872H95V1420H1171L716 0Z" transform="translate(123.1250,54.0000) scale(0.021484,-0.021484)" class="wm-fg" /></g><rect class="wm-accent" x="46" y="62" width="104" height="3" rx="1.5" />
</svg>