<svg xmlns="http://www.w3.org/2000/svg" viewBox="0 0 152 80" role="img" aria-label="qte77 wordmark">
  <style>
    .wm-fg { fill: #e6edf3; }
    .wm-accent { fill: #388bfd; }
    @media (prefers-color-scheme: light) {
      .wm-fg { fill: #1f2328; }
      .wm-accent { fill: #1f6feb; }
    }
  </style>
  <g><path d="M383 561Q383 399 437.0 307.0Q491 215 586 215Q681 215 736.0 307.0Q791 399 791 561Q791 723 736.0 815.0Q681 907 586 907Q491 907 437.0 815.0Q383 723 383 561ZM791 158Q737 64 665.5 17.5Q594 -29 504 -29Q305 -29 197.5 123.0Q90 275 90 559Q90 839 196.0 993.0Q302 1147 494 1147Q595 1147 669.5 1098.0Q744 1049 791 952V1120H1083V-426H791Z" transform="translate(20.0000,54.0000) scale(0.021484,-0.021484)" class="wm-fg" /><path d="M690 1438V1120H1073V895H690V365Q690 290 726.5 257.5Q763 225 848 225H1073V0H827Q575 0 486.0 80.5Q397 161 397 379V895H111V1120H397V1438Z" transform="translate(45.4902,54.0000) scale(0.021484,-0.021484)" class="wm-fg" /><path d="M1102 55Q1000 13 894.0 -8.0Q788 -29 670 -29Q389 -29 240.5 121.5Q92 272 92 555Q92 829 235.0 988.0Q378 1147 625 1147Q874 1147 1011.5 999.5Q1149 852 1149 584V465H390Q391 333 468.0 268.0Q545 203 698 203Q799 203 897.0 232.0Q995 261 1102 324ZM854 685Q852 801 794.5 860.5Q737 920 625 920Q524 920 464.0 858.5Q404 797 393 684Z" transform="translate(70.9805,54.0000) scale(0.021484,-0.021484)" class="wm-fg" /><path d="M135 1493H1079V1284L573 0H272L758 1233H135Z" transform="translate(96.4707,54.0000) scale(0.021484,-0.021484)" class="wm-fg" /><path d="M135 1493H1079V1284L573 0H272L758 1233H135Z" transform="translate(121.9609,54.0000) scale(0.021484,-0.021484)" class="wm-fg" /></g><rect class="wm-accent" x="47.88" y="60.15" width="97.27" height="3" rx="1.5" />
</svg>