<svg xmlns="http://www.w3.org/2000/svg" viewBox="0 0 80 80" role="img" aria-label="qte77 mark">
  <style>
    .mark-bg { fill: #0d1117; }
    .mark-fg { fill: #e6edf3; }
    .mark-accent { fill: #388bfd; }
    @media (prefers-color-scheme: light) {
      .mark-bg { fill: #ffffff; }
      .mark-fg { fill: #1f2328; }
      .mark-accent { fill: #1f6feb; }
    }
  </style>
  <rect class="mark-bg" x="0" y="0" width="80" height="80" rx="12" />
  <g><path d="M398 -180V-26L402 105H398Q391 58 361 29Q321 -10 253 -10Q170 -10 121.0 47.0Q72 104 72 201V350Q72 446 121.5 503.0Q171 560 253 560Q321 560 361 522Q391 492 398 445H401V550H523V-180ZM297 98Q345 98 371.5 126.5Q398 155 398 206V344Q398 395 371.5 423.5Q345 452 297.0 452.0Q249 452 223.0 424.0Q197 396 197 344V206Q197 154 223.0 126.0Q249 98 297 98Z" transform="translate(14.8000,48.0000) scale(0.028000,-0.028000)" class="mark-fg" /><path d="M155 0 419 614H185V508H60V730H544V612L289 0Z" transform="translate(31.6000,48.0000) scale(0.028000,-0.028000)" class="mark-fg" /><path d="M60 -138V-25H540V-138Z" transform="translate(48.4000,43.0000) scale(0.028000,-0.028000)" class="mark-accent" /></g></svg>